<svg width="1605" height="382" viewBox="0 0 1605 382" fill="none" xmlns="http://www.w3.org/2000/svg">
<path fill-rule="evenodd" clip-rule="evenodd" d="M0 0H535V382H0V0ZM0.835938 0.682143H66.0391V53.8893H0.835938V0.682143ZM67.7109 0.682143H132.914V53.8893H67.7109V0.682143ZM199.789 0.682143H134.586V53.8893H199.789V0.682143ZM201.461 0.682143H266.664V53.8893H201.461V0.682143ZM333.539 0.682143H268.336V53.8893H333.539V0.682143ZM335.211 0.682143H400.414V53.8893H335.211V0.682143ZM467.289 0.682143H402.086V53.8893H467.289V0.682143ZM468.961 0.682143H534.164V53.8893H468.961V0.682143ZM66.0391 55.2536H0.835938V108.461H66.0391V55.2536ZM67.7109 55.2536H132.914V108.461H67.7109V55.2536ZM199.789 55.2536H134.586V108.461H199.789V55.2536ZM201.461 55.2536H266.664V108.461H201.461V55.2536ZM333.539 55.2536H268.336V108.461H333.539V55.2536ZM335.211 55.2536H400.414V108.461H335.211V55.2536ZM467.289 55.2536H402.086V108.461H467.289V55.2536ZM468.961 55.2536H534.164V108.461H468.961V55.2536ZM66.0391 109.825H0.835938V163.032H66.0391V109.825ZM67.7109 109.825H132.914V163.032H67.7109V109.825ZM199.789 109.825H134.586V163.032H199.789V109.825ZM201.461 109.825H266.664V163.032H201.461V109.825ZM333.539 109.825H268.336V163.032H333.539V109.825ZM335.211 109.825H400.414V163.032H335.211V109.825ZM467.289 109.825H402.086V163.032H467.289V109.825ZM468.961 109.825H534.164V163.032H468.961V109.825ZM66.0391 164.396H0.835938V217.604H66.0391V164.396ZM67.7109 164.396H132.914V217.604H67.7109V164.396ZM199.789 164.396H134.586V217.604H199.789V164.396ZM201.461 164.396H266.664V217.604H201.461V164.396ZM333.539 164.396H268.336V217.604H333.539V164.396ZM335.211 164.396H400.414V217.604H335.211V164.396ZM467.289 164.396H402.086V217.604H467.289V164.396ZM468.961 164.396H534.164V217.604H468.961V164.396ZM66.0391 218.968H0.835938V272.175H66.0391V218.968ZM67.7109 218.968H132.914V272.175H67.7109V218.968ZM199.789 218.968H134.586V272.175H199.789V218.968ZM201.461 218.968H266.664V272.175H201.461V218.968ZM333.539 218.968H268.336V272.175H333.539V218.968ZM335.211 218.968H400.414V272.175H335.211V218.968ZM467.289 218.968H402.086V272.175H467.289V218.968ZM468.961 218.968H534.164V272.175H468.961V218.968ZM66.0391 273.539H0.835938V326.746H66.0391V273.539ZM67.7109 273.539H132.914V326.746H67.7109V273.539ZM199.789 273.539H134.586V326.746H199.789V273.539ZM201.461 273.539H266.664V326.746H201.461V273.539ZM333.539 273.539H268.336V326.746H333.539V273.539ZM335.211 273.539H400.414V326.746H335.211V273.539ZM467.289 273.539H402.086V326.746H467.289V273.539ZM468.961 273.539H534.164V326.746H468.961V273.539ZM66.0391 328.111H0.835938V381.318H66.0391V328.111ZM67.7109 328.111H132.914V381.318H67.7109V328.111ZM199.789 328.111H134.586V381.318H199.789V328.111ZM201.461 328.111H266.664V381.318H201.461V328.111ZM333.539 328.111H268.336V381.318H333.539V328.111ZM335.211 328.111H400.414V381.318H335.211V328.111ZM467.289 328.111H402.086V381.318H467.289V328.111ZM468.961 328.111H534.164V381.318H468.961V328.111Z" fill="white" fill-opacity="0.1"/>
<path fill-rule="evenodd" clip-rule="evenodd" d="M535 0H1070V382H535V0ZM535.836 0.682143H601.039V53.8893H535.836V0.682143ZM602.711 0.682143H667.914V53.8893H602.711V0.682143ZM734.789 0.682143H669.586V53.8893H734.789V0.682143ZM736.461 0.682143H801.664V53.8893H736.461V0.682143ZM868.539 0.682143H803.336V53.8893H868.539V0.682143ZM870.211 0.682143H935.414V53.8893H870.211V0.682143ZM1002.29 0.682143H937.086V53.8893H1002.29V0.682143ZM1003.96 0.682143H1069.16V53.8893H1003.96V0.682143ZM601.039 55.2536H535.836V108.461H601.039V55.2536ZM602.711 55.2536H667.914V108.461H602.711V55.2536ZM734.789 55.2536H669.586V108.461H734.789V55.2536ZM736.461 55.2536H801.664V108.461H736.461V55.2536ZM868.539 55.2536H803.336V108.461H868.539V55.2536ZM870.211 55.2536H935.414V108.461H870.211V55.2536ZM1002.29 55.2536H937.086V108.461H1002.29V55.2536ZM1003.96 55.2536H1069.16V108.461H1003.96V55.2536ZM601.039 109.825H535.836V163.032H601.039V109.825ZM602.711 109.825H667.914V163.032H602.711V109.825ZM734.789 109.825H669.586V163.032H734.789V109.825ZM736.461 109.825H801.664V163.032H736.461V109.825ZM868.539 109.825H803.336V163.032H868.539V109.825ZM870.211 109.825H935.414V163.032H870.211V109.825ZM1002.29 109.825H937.086V163.032H1002.29V109.825ZM1003.96 109.825H1069.16V163.032H1003.96V109.825ZM601.039 164.396H535.836V217.604H601.039V164.396ZM602.711 164.396H667.914V217.604H602.711V164.396ZM734.789 164.396H669.586V217.604H734.789V164.396ZM736.461 164.396H801.664V217.604H736.461V164.396ZM868.539 164.396H803.336V217.604H868.539V164.396ZM870.211 164.396H935.414V217.604H870.211V164.396ZM1002.29 164.396H937.086V217.604H1002.29V164.396ZM1003.96 164.396H1069.16V217.604H1003.96V164.396ZM601.039 218.968H535.836V272.175H601.039V218.968ZM602.711 218.968H667.914V272.175H602.711V218.968ZM734.789 218.968H669.586V272.175H734.789V218.968ZM736.461 218.968H801.664V272.175H736.461V218.968ZM868.539 218.968H803.336V272.175H868.539V218.968ZM870.211 218.968H935.414V272.175H870.211V218.968ZM1002.29 218.968H937.086V272.175H1002.29V218.968ZM1003.96 218.968H1069.16V272.175H1003.96V218.968ZM601.039 273.539H535.836V326.746H601.039V273.539ZM602.711 273.539H667.914V326.746H602.711V273.539ZM734.789 273.539H669.586V326.746H734.789V273.539ZM736.461 273.539H801.664V326.746H736.461V273.539ZM868.539 273.539H803.336V326.746H868.539V273.539ZM870.211 273.539H935.414V326.746H870.211V273.539ZM1002.29 273.539H937.086V326.746H1002.29V273.539ZM1003.96 273.539H1069.16V326.746H1003.96V273.539ZM601.039 328.111H535.836V381.318H601.039V328.111ZM602.711 328.111H667.914V381.318H602.711V328.111ZM734.789 328.111H669.586V381.318H734.789V328.111ZM736.461 328.111H801.664V381.318H736.461V328.111ZM868.539 328.111H803.336V381.318H868.539V328.111ZM870.211 328.111H935.414V381.318H870.211V328.111ZM1002.29 328.111H937.086V381.318H1002.29V328.111ZM1003.96 328.111H1069.16V381.318H1003.96V328.111Z" fill="white" fill-opacity="0.1"/>
<path fill-rule="evenodd" clip-rule="evenodd" d="M1070 0H1605V382H1070V0ZM1070.84 0.682143H1136.04V53.8893H1070.84V0.682143ZM1137.71 0.682143H1202.91V53.8893H1137.71V0.682143ZM1269.79 0.682143H1204.59V53.8893H1269.79V0.682143ZM1271.46 0.682143H1336.66V53.8893H1271.46V0.682143ZM1403.54 0.682143H1338.34V53.8893H1403.54V0.682143ZM1405.21 0.682143H1470.41V53.8893H1405.21V0.682143ZM1537.29 0.682143H1472.09V53.8893H1537.29V0.682143ZM1538.96 0.682143H1604.16V53.8893H1538.96V0.682143ZM1136.04 55.2536H1070.84V108.461H1136.04V55.2536ZM1137.71 55.2536H1202.91V108.461H1137.71V55.2536ZM1269.79 55.2536H1204.59V108.461H1269.79V55.2536ZM1271.46 55.2536H1336.66V108.461H1271.46V55.2536ZM1403.54 55.2536H1338.34V108.461H1403.54V55.2536ZM1405.21 55.2536H1470.41V108.461H1405.21V55.2536ZM1537.29 55.2536H1472.09V108.461H1537.29V55.2536ZM1538.96 55.2536H1604.16V108.461H1538.96V55.2536ZM1136.04 109.825H1070.84V163.032H1136.04V109.825ZM1137.71 109.825H1202.91V163.032H1137.71V109.825ZM1269.79 109.825H1204.59V163.032H1269.79V109.825ZM1271.46 109.825H1336.66V163.032H1271.46V109.825ZM1403.54 109.825H1338.34V163.032H1403.54V109.825ZM1405.21 109.825H1470.41V163.032H1405.21V109.825ZM1537.29 109.825H1472.09V163.032H1537.29V109.825ZM1538.96 109.825H1604.16V163.032H1538.96V109.825ZM1136.04 164.396H1070.84V217.604H1136.04V164.396ZM1137.71 164.396H1202.91V217.604H1137.71V164.396ZM1269.79 164.396H1204.59V217.604H1269.79V164.396ZM1271.46 164.396H1336.66V217.604H1271.46V164.396ZM1403.54 164.396H1338.34V217.604H1403.54V164.396ZM1405.21 164.396H1470.41V217.604H1405.21V164.396ZM1537.29 164.396H1472.09V217.604H1537.29V164.396ZM1538.96 164.396H1604.16V217.604H1538.96V164.396ZM1136.04 218.968H1070.84V272.175H1136.04V218.968ZM1137.71 218.968H1202.91V272.175H1137.71V218.968ZM1269.79 218.968H1204.59V272.175H1269.79V218.968ZM1271.46 218.968H1336.66V272.175H1271.46V218.968ZM1403.54 218.968H1338.34V272.175H1403.54V218.968ZM1405.21 218.968H1470.41V272.175H1405.21V218.968ZM1537.29 218.968H1472.09V272.175H1537.29V218.968ZM1538.96 218.968H1604.16V272.175H1538.96V218.968ZM1136.04 273.539H1070.84V326.746H1136.04V273.539ZM1137.71 273.539H1202.91V326.746H1137.71V273.539ZM1269.79 273.539H1204.59V326.746H1269.79V273.539ZM1271.46 273.539H1336.66V326.746H1271.46V273.539ZM1403.54 273.539H1338.34V326.746H1403.54V273.539ZM1405.21 273.539H1470.41V326.746H1405.21V273.539ZM1537.29 273.539H1472.09V326.746H1537.29V273.539ZM1538.96 273.539H1604.16V326.746H1538.96V273.539ZM1136.04 328.111H1070.84V381.318H1136.04V328.111ZM1137.71 328.111H1202.91V381.318H1137.71V328.111ZM1269.79 328.111H1204.59V381.318H1269.79V328.111ZM1271.46 328.111H1336.66V381.318H1271.46V328.111ZM1403.54 328.111H1338.34V381.318H1403.54V328.111ZM1405.21 328.111H1470.41V381.318H1405.21V328.111ZM1537.29 328.111H1472.09V381.318H1537.29V328.111ZM1538.96 328.111H1604.16V381.318H1538.96V328.111Z" fill="white" fill-opacity="0.1"/>
</svg>
